<?xml version="1.0" standalone="no"?>
<!DOCTYPE svg PUBLIC "-//W3C//DTD SVG 20010904//EN"
 "http://www.w3.org/TR/2001/REC-SVG-20010904/DTD/svg10.dtd">
<svg version="1.0" xmlns="http://www.w3.org/2000/svg"
 width="500.000000pt" height="500.000000pt" viewBox="0 0 500.000000 500.000000"
 preserveAspectRatio="xMidYMid meet">

<g transform="translate(0.000000,500.000000) scale(0.100000,-0.100000)"
fill="#000000" stroke="none">
<path d="M3387 4329 c-86 -20 -155 -82 -164 -147 -4 -33 -15 -48 -60 -87 l-54
-47 -17 23 c-37 53 -106 119 -146 139 -54 26 -134 26 -184 1 -102 -52 -143
-145 -111 -252 10 -32 9 -42 -5 -63 -9 -14 -16 -38 -16 -53 0 -26 87 -206 120
-249 31 -40 81 -73 145 -94 40 -13 73 -31 85 -47 23 -30 49 -107 60 -176 6
-45 5 -49 -17 -58 -37 -14 -63 -11 -69 9 -3 9 -21 49 -40 89 -39 81 -93 134
-158 156 -30 10 -46 23 -61 52 -11 21 -29 43 -40 49 -11 6 -39 23 -62 39 -112
73 -206 86 -293 41 -42 -22 -57 -25 -99 -19 -64 9 -114 -8 -142 -46 -15 -22
-28 -29 -53 -29 -44 0 -93 -21 -149 -64 l-45 -34 -28 30 c-53 55 -99 71 -181
65 -49 -4 -77 -2 -86 6 -29 28 -73 42 -131 42 -79 0 -105 -8 -158 -48 -33 -26
-58 -35 -102 -41 -107 -12 -191 -66 -238 -152 -38 -72 -43 -122 -22 -226 l18
-90 -23 -62 c-61 -164 -63 -231 -10 -324 22 -40 46 -63 92 -92 108 -68 112
-72 141 -165 40 -128 91 -183 320 -343 37 -25 53 -47 77 -98 44 -100 111 -176
259 -296 88 -72 96 -74 126 -39 14 16 33 33 44 36 10 3 20 11 23 18 5 14 -50
17 -71 4 -17 -11 -65 20 -179 118 -39 33 -173 171 -173 177 0 4 24 -1 53 -13
28 -11 99 -36 157 -54 58 -19 118 -42 134 -51 16 -10 55 -25 85 -35 l56 -18
-43 0 c-39 -1 -41 -2 -27 -18 49 -58 67 -74 80 -69 69 26 -118 -178 -265 -290
-121 -92 -261 -180 -341 -213 -78 -33 -117 -67 -100 -84 12 -12 101 -1 316 37
182 32 445 121 645 219 69 33 203 115 365 222 201 133 243 164 330 240 33 29
89 77 125 107 35 30 84 79 108 109 24 29 80 96 125 148 111 127 149 182 192
279 26 59 39 109 47 174 20 160 -15 279 -118 396 -40 46 -44 55 -33 69 22 27
79 76 112 96 29 18 32 18 66 2 46 -23 158 -31 204 -16 19 7 50 27 68 46 18 18
47 36 64 39 68 13 141 108 152 199 4 27 16 53 33 72 36 39 48 63 61 124 20 95
-18 174 -111 230 -42 25 -160 29 -200 6 -14 -8 -42 -14 -62 -15 -46 0 -54 -12
-31 -50 25 -43 55 -48 103 -16 49 32 101 34 155 3 56 -31 80 -82 65 -136 -8
-29 -19 -45 -40 -56 -17 -9 -30 -20 -30 -26 0 -6 -7 -9 -15 -5 -18 7 -45 -51
-45 -96 0 -17 -4 -27 -10 -23 -5 3 -10 1 -10 -4 0 -6 -7 -11 -15 -11 -7 0 -18
-7 -23 -16 -7 -13 -13 -14 -30 -5 -11 6 -36 11 -55 11 -50 0 -55 25 -9 43 21
8 56 20 78 26 68 18 102 59 72 89 -8 8 -1 22 30 56 23 25 42 48 42 50 0 3 -7
12 -16 21 -22 22 -61 12 -150 -36 -39 -22 -74 -39 -77 -39 -4 0 -7 9 -7 20 0
34 -17 23 -76 -51 -31 -39 -58 -68 -61 -65 -3 3 -1 11 5 18 43 53 55 95 62
218 6 96 5 134 -6 165 -8 22 -14 67 -14 101 0 49 -5 68 -30 107 -58 93 -165
140 -263 116z m139 -100 c55 -33 74 -73 74 -150 0 -36 5 -80 11 -97 8 -23 7
-36 -2 -54 -7 -13 -12 -29 -11 -36 4 -16 -48 -36 -60 -24 -6 6 -21 5 -38 -1
-48 -18 -47 1 3 51 63 64 63 101 -1 93 -9 -1 -12 18 -10 74 2 79 -5 94 -43 95
-19 0 -55 -71 -72 -141 l-11 -48 -26 30 c-17 21 -30 28 -42 24 -23 -9 -22 -18
2 -95 27 -85 25 -102 -6 -56 -24 35 -27 37 -42 22 -14 -14 -15 -22 -3 -73 18
-75 25 -177 14 -198 -8 -13 -16 -6 -45 37 -50 75 -49 73 -58 143 -5 42 -4 80
5 117 18 75 21 80 65 111 37 26 60 71 60 119 0 21 54 66 88 74 15 3 32 7 37
10 21 8 77 -6 111 -27z m-596 -99 c21 -11 41 -29 45 -40 7 -22 73 -80 92 -80
20 0 22 -13 9 -105 l-11 -89 -23 38 c-13 21 -28 58 -34 82 -12 43 -18 47 -63
45 -13 0 -30 14 -47 39 -27 39 -64 58 -93 46 -13 -5 -14 -14 -8 -43 4 -21 7
-60 6 -86 -3 -45 1 -53 42 -100 25 -29 45 -55 45 -59 0 -3 -12 -3 -27 1 -39
10 -63 3 -63 -19 0 -11 24 -35 63 -62 43 -30 69 -57 84 -87 13 -25 21 -47 18
-49 -8 -8 -98 28 -131 53 -33 25 -74 90 -74 117 0 7 -14 31 -30 52 -35 47 -36
51 -11 106 18 40 18 47 4 92 -18 61 -6 106 38 143 39 32 112 34 169 5z m497
-210 c-14 -58 -37 -152 -52 -210 -54 -211 -75 -297 -90 -373 -21 -104 -33
-127 -62 -127 -30 0 -30 8 8 148 18 65 35 133 40 152 4 19 13 53 19 75 6 22
14 51 17 65 6 27 38 150 83 315 14 55 33 111 41 125 14 25 14 24 17 -20 1 -25
-8 -92 -21 -150z m-493 -30 c100 -202 186 -455 201 -595 7 -65 7 -65 -18 -65
-30 0 -37 16 -37 80 0 76 -60 281 -114 389 -13 25 -29 64 -36 86 -7 22 -25 68
-41 101 -15 34 -31 79 -34 100 l-6 39 21 -25 c11 -14 40 -63 64 -110z m612
-113 c4 -33 -15 -75 -37 -82 -11 -4 -27 2 -41 14 -12 12 -16 21 -10 21 7 0 12
5 12 10 0 12 63 70 69 64 3 -2 6 -14 7 -27z m384 -67 c-6 -11 -43 -45 -83 -77
-39 -32 -94 -79 -120 -105 -26 -27 -50 -48 -53 -48 -12 0 -65 -48 -196 -176
-128 -125 -166 -151 -182 -125 -6 10 222 242 325 331 107 93 196 160 252 191
62 34 71 36 57 9z m-734 -152 c14 -45 15 -60 4 -120 -7 -42 -16 -66 -21 -61
-15 15 -33 165 -25 206 9 47 20 41 42 -25z m-679 12 c100 -52 107 -58 129
-105 16 -32 28 -42 68 -57 63 -22 77 -35 54 -52 -10 -7 -16 -15 -13 -17 12
-12 -64 0 -92 14 -56 30 -136 56 -207 68 -98 17 -332 6 -416 -20 -94 -28 -189
-73 -196 -93 -6 -20 -82 -83 -90 -75 -10 10 48 115 92 165 51 58 96 82 153 82
35 0 49 7 86 41 45 41 46 42 104 36 51 -6 65 -3 117 23 81 40 116 38 211 -10z
m1069 -12 c-8 -12 -31 -35 -50 -51 l-36 -27 -6 25 c-3 14 -5 27 -3 28 32 19
105 54 107 52 2 -2 -3 -14 -12 -27z m390 0 l-16 -22 0 22 c0 13 4 20 10 17 6
-3 10 -1 10 6 0 7 3 10 6 6 3 -3 -1 -16 -10 -29z m-2550 -33 c20 -8 49 -26 65
-39 26 -22 33 -23 61 -13 57 19 125 15 150 -10 l22 -23 -21 -22 c-12 -13 -44
-63 -72 -113 -29 -49 -55 -92 -59 -95 -33 -24 -60 -75 -66 -122 -12 -98 -21
-77 -21 52 0 115 -2 131 -21 157 -27 36 -60 38 -56 3 10 -85 5 -202 -12 -267
-10 -40 -21 -73 -25 -73 -3 0 -12 15 -20 33 -61 143 -144 284 -183 312 -28 19
-57 19 -64 1 -3 -8 13 -42 36 -75 47 -71 122 -218 156 -309 24 -64 31 -101 13
-70 -16 28 -173 127 -205 130 -66 5 -73 -32 -12 -63 80 -41 236 -178 224 -197
-4 -6 4 -18 16 -26 12 -9 18 -16 13 -16 -6 0 -5 -4 1 -8 6 -4 15 -18 19 -32 7
-24 6 -24 -8 -6 -9 13 -20 17 -32 12 -10 -3 -27 0 -39 7 -37 24 -135 57 -170
57 -32 0 -53 -20 -41 -40 3 -4 36 -23 74 -41 63 -30 68 -35 59 -54 -9 -16 -8
-18 3 -7 18 17 22 16 59 -16 21 -19 27 -29 17 -29 -9 0 -13 5 -10 10 4 6 -1 8
-11 4 -9 -4 -15 -3 -12 2 3 5 -2 15 -11 22 -14 12 -16 12 -11 -2 4 -11 -2 -21
-17 -29 -13 -7 -21 -18 -19 -25 3 -7 1 -16 -5 -20 -7 -4 -11 3 -11 17 -1 21
-2 22 -14 5 -12 -16 -15 -15 -41 19 -15 19 -59 56 -98 81 -85 55 -89 58 -116
111 -29 56 -27 122 5 197 45 103 49 135 30 212 -32 133 -12 212 68 277 33 27
46 31 114 34 71 4 80 6 112 37 38 37 92 64 128 65 12 0 39 -7 58 -15z m2000
-42 c-20 -82 -28 -101 -55 -133 -35 -40 -40 -27 -16 43 29 86 45 117 61 117
13 0 15 -6 10 -27z m-678 -178 c-3 -3 -9 2 -12 12 -6 14 -5 15 5 6 7 -7 10
-15 7 -18z m-266 -26 c112 -22 248 -92 282 -144 21 -32 20 -36 -8 -29 -13 3
-27 1 -30 -4 -4 -6 2 -8 14 -5 27 7 25 -3 -5 -33 -14 -14 -25 -20 -25 -14 0 5
-4 10 -10 10 -5 0 -7 -7 -3 -15 3 -10 0 -15 -8 -13 -8 2 -13 -2 -12 -8 3 -14
-46 -11 -77 6 -14 7 -58 36 -98 63 -80 55 -104 56 -110 4 -4 -28 28 -57 117
-105 l51 -29 -37 -11 c-62 -18 -145 -24 -196 -14 -39 8 -51 7 -68 -7 -40 -32
0 -62 101 -75 25 -3 72 -1 105 5 151 26 155 25 114 -31 -12 -16 -34 -57 -49
-91 -49 -110 -61 -115 -165 -68 -27 12 -61 23 -75 24 -14 1 -51 14 -83 28 -32
15 -63 27 -70 27 -7 0 -19 5 -27 10 -11 8 -7 9 15 4 17 -4 27 -3 22 2 -5 5
-38 9 -74 10 -73 1 -78 5 -87 75 -6 44 16 187 32 214 16 27 92 122 108 137 78
68 233 102 356 77z m-423 -31 c-13 -18 -41 -58 -64 -88 -43 -60 -60 -96 -95
-205 -16 -50 -34 -82 -64 -113 -44 -46 -123 -99 -133 -88 -3 3 -12 -2 -20 -12
-9 -10 -11 -11 -7 -2 11 21 -126 -118 -153 -155 l-22 -30 0 31 c-2 73 31 210
68 290 72 152 150 243 275 317 69 41 183 86 219 87 17 0 16 -3 -4 -32z m1195
-137 c36 -18 80 -49 101 -73 l38 -41 -6 -91 c-4 -50 -11 -105 -17 -123 -10
-27 -15 -31 -38 -27 -26 5 -26 5 -7 -10 11 -9 15 -16 8 -16 -6 0 -18 8 -25 18
-22 31 -149 104 -189 109 -31 5 -40 2 -45 -12 -10 -25 6 -46 64 -80 54 -32
149 -112 156 -132 3 -6 -11 -3 -30 9 -19 11 -34 15 -34 9 0 -6 -7 -11 -15 -11
-8 0 -15 -6 -16 -12 0 -10 -2 -10 -6 0 -8 20 -40 14 -46 -9 -3 -12 -11 -19
-19 -17 -7 3 -23 -10 -35 -28 -12 -19 -18 -34 -12 -34 6 0 7 -5 4 -10 -4 -6
-1 -17 5 -25 10 -12 10 -15 0 -15 -9 0 -9 -4 1 -17 13 -16 12 -17 -3 -4 -10 7
-15 17 -12 22 3 5 -4 9 -15 9 -12 0 -21 4 -21 8 0 5 -6 9 -12 10 -7 1 -25 4
-41 8 -26 6 -57 -8 -57 -26 0 -4 28 -36 63 -70 34 -35 47 -51 28 -36 -39 31
-56 27 -20 -5 l24 -21 -25 16 c-28 18 -40 20 -40 7 0 -5 9 -13 21 -16 11 -4
18 -9 16 -12 -3 -2 -14 0 -25 6 -16 8 -24 5 -47 -19 -16 -17 -34 -30 -41 -30
-7 0 -25 -13 -40 -30 -26 -27 -30 -28 -45 -14 -26 23 -73 14 -77 -14 -3 -18 9
-36 50 -73 45 -42 49 -49 29 -47 -25 3 -81 -42 -81 -65 0 -13 -50 -39 -84 -44
-11 -2 -29 5 -40 15 -30 26 -96 59 -133 67 -18 3 -33 13 -33 20 0 14 72 138
99 170 9 11 23 43 29 70 7 28 22 74 34 104 l21 53 56 -5 c31 -3 76 -12 101
-21 42 -15 46 -14 58 1 7 10 11 24 10 33 -4 21 -90 62 -143 68 -25 2 -45 7
-45 11 0 8 28 159 35 190 6 22 9 23 58 17 29 -4 87 -18 130 -32 43 -14 84 -23
92 -20 23 9 18 59 -7 75 -34 21 -128 51 -162 51 -17 0 -41 3 -53 6 -19 5 -21
9 -11 28 23 45 102 127 146 153 86 51 139 64 230 59 64 -4 96 -12 146 -35z
m-1180 -431 c43 -11 104 -33 136 -51 68 -36 164 -119 185 -159 13 -25 13 -28
-4 -33 -10 -2 -34 -33 -52 -68 -32 -60 -36 -64 -69 -64 -37 0 -38 1 -55 105
-8 51 -18 63 -45 55 -21 -7 -22 -11 -16 -71 4 -35 5 -64 3 -64 -2 0 -24 29
-50 64 -46 63 -76 84 -97 71 -18 -11 -10 -46 22 -92 48 -70 89 -195 68 -208
-16 -10 -188 61 -231 96 -47 37 -57 40 -76 26 -22 -16 -14 -47 19 -80 18 -18
31 -36 30 -40 -1 -5 2 -6 7 -3 5 4 22 -5 38 -18 l28 -24 -33 4 c-23 3 -31 0
-26 -8 5 -8 2 -9 -12 -4 -10 5 -26 9 -34 10 -8 0 -19 6 -23 11 -6 7 -10 6 -13
-1 -3 -6 -18 -10 -34 -8 -17 2 -30 -1 -30 -6 0 -42 -68 38 -123 145 -59 113
-48 219 34 318 86 104 271 144 453 97z m1056 -104 c0 -3 -4 -8 -10 -11 -5 -3
-10 -1 -10 4 0 6 5 11 10 11 6 0 10 -2 10 -4z m-273 -303 c-4 -3 -2 -11 3 -18
7 -8 5 -12 -4 -12 -8 0 -12 7 -11 16 5 22 4 21 12 21 3 0 3 -3 0 -7z m-389
-233 c52 -24 141 -113 138 -137 -4 -22 -29 -24 -38 -3 -6 13 -7 12 -7 -2 -1
-11 -13 -19 -36 -24 -19 -3 -35 -10 -35 -14 0 -12 -68 -32 -82 -25 -7 4 -5 0
5 -8 9 -8 17 -17 17 -21 0 -4 -19 8 -42 28 -22 20 -61 43 -85 52 -23 9 -43 20
-43 24 0 4 17 29 37 56 78 101 95 109 171 74z m192 -30 c8 -5 12 -11 10 -14
-3 -2 -14 2 -24 10 -22 15 -10 19 14 4z m-382 -194 c15 -8 40 -28 57 -45 28
-31 29 -32 13 -59 -9 -14 -31 -34 -48 -43 -17 -10 -39 -24 -49 -33 -10 -9 -20
-14 -23 -11 -3 3 -19 -10 -37 -30 -17 -20 -31 -33 -31 -30 0 3 -11 -5 -24 -19
-13 -15 -28 -26 -35 -26 -11 0 -80 70 -81 82 0 4 19 29 43 56 23 26 63 76 89
110 52 67 74 75 126 48z m-214 -27 c5 -5 -5 -4 -24 1 -18 5 -35 12 -39 16 -9
9 53 -7 63 -17z m-76 -271 c36 -36 -17 -107 -97 -129 -25 -7 -76 -32 -113 -56
-64 -42 -86 -62 -53 -49 8 3 15 2 15 -3 0 -4 -28 -15 -62 -24 -35 -8 -72 -18
-83 -22 -28 -10 21 31 115 97 41 29 91 67 110 84 19 18 55 50 80 73 47 42 68
49 88 29z m-208 -228 c-8 -5 -19 -10 -25 -10 -5 0 -3 5 5 10 8 5 20 10 25 10
6 0 3 -5 -5 -10z"/>
<path d="M2246 4144 c-178 -27 -424 -124 -579 -228 -80 -53 -228 -166 -275
-209 -21 -20 -22 -22 -5 -28 10 -4 35 -8 55 -8 20 -1 49 -6 63 -11 15 -6 59
-15 98 -21 96 -14 135 -27 175 -56 l33 -25 154 72 c109 51 172 74 217 80 36 5
93 16 129 25 103 24 163 18 271 -29 15 -7 14 -1 -3 56 -17 54 -19 80 -14 181
4 84 12 132 26 163 10 25 19 48 19 50 0 10 -283 1 -364 -12z m284 -74 c12 -8
10 -10 -10 -10 -212 -4 -461 -62 -644 -150 -66 -31 -252 -150 -291 -187 -38
-35 -74 -53 -81 -42 -3 6 -2 14 2 18 206 175 476 314 684 353 139 25 314 35
340 18z m-145 -180 c-11 -5 -29 -9 -40 -9 l-20 0 20 9 c11 5 29 9 40 9 l20 0
-20 -9z m-90 -9 c-11 -5 -42 -11 -70 -14 -46 -5 -48 -4 -25 9 14 7 45 13 70
13 33 0 39 -2 25 -8z m-150 -31 c-3 -5 -13 -10 -21 -10 -8 0 -71 -25 -142 -56
-158 -69 -163 -71 -132 -44 38 34 110 67 202 94 95 29 101 30 93 16z"/>
<path d="M3880 3185 c-99 -53 -211 -67 -320 -41 -17 4 -33 0 -50 -13 l-25 -20
21 -23 c12 -13 37 -52 57 -88 21 -37 56 -82 83 -104 74 -62 169 -216 269 -441
10 -22 29 -92 42 -155 19 -91 23 -140 21 -237 -2 -67 0 -124 4 -128 11 -12 44
65 66 155 37 154 47 241 47 420 -1 187 -18 300 -70 455 -20 58 -92 235 -98
241 -1 1 -22 -9 -47 -21z"/>
<path d="M3580 2821 c0 -42 13 -72 60 -132 67 -89 138 -246 171 -377 32 -129
35 -163 17 -160 -9 2 -14 -14 -16 -52 -3 -71 -29 -221 -49 -285 -31 -99 -85
-183 -177 -280 -54 -55 -110 -103 -136 -115 -25 -12 -56 -32 -69 -44 -18 -16
-15 -7 14 38 20 32 53 93 72 135 73 163 93 185 93 104 0 -70 12 -82 44 -50 28
28 29 34 31 147 1 59 8 94 35 165 34 88 34 93 34 245 1 92 -5 178 -12 212 -14
60 -92 202 -104 190 -4 -4 -3 -37 2 -72 48 -326 51 -359 40 -427 -24 -140 -74
-243 -173 -349 -95 -102 -185 -158 -332 -204 -171 -54 -313 -58 -453 -14 -58
19 -71 18 -111 -9 -76 -49 -127 -76 -144 -77 -10 0 -32 -7 -49 -16 -31 -16
-31 -17 -12 -31 62 -47 276 -142 387 -171 341 -92 637 -46 852 132 69 57 84
72 142 146 147 187 201 355 190 589 -9 198 -46 338 -135 516 -61 122 -174 275
-204 275 -4 0 -8 -13 -8 -29z m-211 -1313 c-35 -67 -100 -146 -131 -157 -18
-7 -44 -19 -58 -26 -14 -7 -38 -16 -55 -19 -16 -3 -41 -10 -55 -13 -14 -4 -77
-8 -140 -7 -97 0 -129 4 -205 27 -160 50 -166 54 -180 123 -4 15 25 14 61 -2
76 -34 167 -46 314 -42 142 4 147 5 255 46 60 24 130 56 155 72 24 16 46 27
48 25 2 -2 -2 -14 -9 -27z"/>
<path d="M873 2444 c9 -109 55 -309 102 -449 25 -73 105 -240 155 -320 58 -94
165 -236 236 -313 l59 -63 35 29 c19 15 53 38 75 51 71 41 235 163 235 174 0
7 -26 30 -58 52 -94 65 -222 201 -274 290 -50 87 -80 119 -146 157 -23 14 -80
57 -126 96 -88 76 -131 140 -156 235 -13 49 -42 81 -111 121 l-32 19 6 -79z"/>
<path d="M3509 2407 c-19 -25 -39 -111 -39 -164 0 -85 -66 -249 -140 -347
-100 -133 -292 -232 -528 -275 -77 -14 -109 -24 -128 -42 -30 -28 -18 -39 46
-39 102 0 248 37 377 96 249 113 403 319 443 594 13 93 11 192 -5 196 -5 2
-17 -7 -26 -19z"/>
<path d="M3247 1973 c-11 -10 -8 -41 4 -49 16 -9 43 21 36 40 -7 16 -28 21
-40 9z"/>
<path d="M2204 1294 c-44 -19 -97 -42 -119 -50 -22 -9 -65 -26 -95 -39 -30
-12 -100 -36 -155 -51 -54 -16 -99 -33 -100 -39 0 -15 168 -97 266 -129 199
-66 289 -80 504 -80 247 1 408 36 601 129 l89 43 -135 1 c-254 2 -481 66 -687
194 l-90 55 -79 -34z"/>
</g>
</svg>
